<svg width="3352" height="1080" viewBox="0 0 3352 1080" fill="none" xmlns="http://www.w3.org/2000/svg">
<g filter="url(#filter0_d_9_55)">
<path fill-rule="evenodd" clip-rule="evenodd" d="M2463.47 243.962C2451.49 242.696 2441.12 252.227 2441.37 264.268L2450.11 683.13C2452.2 783.544 2528.45 866.83 2628.28 877.768L2955.92 913.663C3055.88 924.614 3148.43 859.642 3172.09 761.907L3270.55 355.166C3273.39 343.442 3265.28 331.893 3253.29 330.579L3097.35 313.496C3051.88 308.513 3015.98 270.169 2984.48 236.514C2983.65 235.632 2982.83 234.754 2982.01 233.879C2960.41 210.826 2925.86 189.583 2870.77 183.547C2814.44 177.375 2775.31 191.168 2748.82 209.358L2748.43 209.629C2710.57 235.632 2667.11 265.48 2621.48 260.659L2463.47 243.962ZM2961.02 323.71C2972 324.913 2982.33 316.717 2979.51 306.038C2967.37 260.084 2895.18 239.035 2864.06 235.626C2832.95 232.217 2758.67 237.219 2737.04 279.465C2732 289.297 2740.31 299.529 2751.29 300.732L2961.02 323.71Z" fill="#1A4E52"/>
<path d="M2986.39 229.777L2982.01 233.879L2986.39 229.777C2963.77 205.634 2927.88 183.768 2871.43 177.583C2813.71 171.259 2773.13 185.383 2745.42 204.412L2745.03 204.683L2748.37 209.551L2745.03 204.683C2726.03 217.735 2706.09 231.412 2685.29 241.282C2664.54 251.135 2643.42 256.943 2622.11 254.692L2464.1 237.995C2448.53 236.35 2435.04 248.739 2435.37 264.393L2444.11 683.255C2446.27 786.681 2524.8 872.466 2627.63 883.732L2955.27 919.627C3058.23 930.907 3153.55 863.986 3177.92 763.318L3276.38 356.577C3280.07 341.336 3269.53 326.323 3253.94 324.615L3098.01 307.531C3076.78 305.206 3057.47 295.061 3039.35 281.015C3021.2 266.943 3004.67 249.307 2988.86 232.413C2988.03 231.532 2987.21 230.652 2986.39 229.777ZM2973.71 307.571C2974.48 310.482 2973.56 312.954 2971.43 314.865C2969.17 316.899 2965.56 318.171 2961.68 317.745L2751.94 294.767C2748.06 294.342 2744.81 292.32 2743.04 289.841C2741.37 287.51 2741 284.888 2742.38 282.2C2751.97 263.463 2773.75 252.238 2798.41 246.256C2822.83 240.331 2848.47 239.954 2863.41 241.59C2878.35 243.227 2903.5 249.171 2926.27 260.271C2949.27 271.484 2968.32 287.194 2973.71 307.571Z" stroke="#2E2E2E" stroke-width="12"/>
</g>
<path d="M544.869 756.895V865H122.857V756.895H544.869ZM542.066 354.102L192.525 865H90.8262V790.928L444.371 282.031H542.066V354.102ZM496.822 282.031V390.537H88.8242V282.031H496.822Z" fill="#2E2E2E"/>
<path d="M827.545 756.094V577.52C827.545 565.241 825.81 554.697 822.34 545.889C818.87 537.08 813.398 530.273 805.924 525.469C798.45 520.397 788.44 517.861 775.895 517.861C765.751 517.861 757.076 519.596 749.869 523.066C742.662 526.536 737.19 531.742 733.453 538.682C729.716 545.622 727.848 554.43 727.848 565.107H592.916C592.916 545.088 597.32 526.536 606.129 509.453C615.204 492.103 628.017 477.021 644.566 464.209C661.383 451.396 681.402 441.52 704.625 434.58C728.115 427.373 754.273 423.77 783.102 423.77C817.535 423.77 848.232 429.508 875.191 440.986C902.418 452.464 923.906 469.681 939.654 492.637C955.403 515.326 963.277 543.887 963.277 578.32V755.693C963.277 783.988 964.879 805.475 968.082 820.156C971.285 834.57 975.823 847.249 981.695 858.193V865H846.363C839.957 851.654 835.152 835.371 831.949 816.152C829.013 796.667 827.545 776.647 827.545 756.094ZM843.961 600.342L844.762 672.412H785.104C772.558 672.412 761.881 674.147 753.072 677.617C744.531 681.087 737.591 685.892 732.252 692.031C727.18 697.904 723.443 704.577 721.041 712.051C718.906 719.525 717.838 727.399 717.838 735.674C717.838 743.682 719.706 750.889 723.443 757.295C727.447 763.434 732.786 768.239 739.459 771.709C746.132 775.179 753.606 776.914 761.881 776.914C776.829 776.914 789.508 774.111 799.918 768.506C810.595 762.633 818.736 755.56 824.342 747.285C829.947 739.01 832.75 731.27 832.75 724.062L862.379 779.316C857.04 789.993 850.901 800.804 843.961 811.748C837.288 822.692 828.88 832.835 818.736 842.178C808.86 851.253 796.715 858.727 782.301 864.6C767.887 870.205 750.403 873.008 729.85 873.008C703.157 873.008 678.6 867.536 656.178 856.592C634.023 845.648 616.272 830.433 602.926 810.947C589.579 791.195 582.906 768.506 582.906 742.881C582.906 720.459 586.91 700.439 594.918 682.822C603.193 665.205 615.605 650.257 632.154 637.979C648.704 625.7 669.791 616.357 695.416 609.951C721.041 603.545 751.204 600.342 785.904 600.342H843.961Z" fill="#2E2E2E"/>
<path d="M1170.68 524.268V865H1035.75V431.777H1162.27L1170.68 524.268ZM1154.66 633.574L1123.03 634.375C1123.03 601.276 1127.04 571.781 1135.04 545.889C1143.05 519.73 1154.4 497.575 1169.08 479.424C1183.76 461.273 1201.24 447.526 1221.53 438.184C1242.08 428.574 1264.9 423.77 1290 423.77C1310.02 423.77 1328.3 426.706 1344.85 432.578C1361.67 438.451 1376.08 447.926 1388.09 461.006C1400.37 474.085 1409.71 491.436 1416.12 513.057C1422.79 534.411 1426.13 560.837 1426.13 592.334V865H1290.4V591.934C1290.4 574.583 1287.99 561.37 1283.19 552.295C1278.38 542.952 1271.44 536.546 1262.37 533.076C1253.29 529.606 1242.22 527.871 1229.14 527.871C1215.26 527.871 1203.51 530.54 1193.9 535.879C1184.29 541.217 1176.55 548.691 1170.68 558.301C1165.07 567.643 1160.94 578.721 1158.27 591.533C1155.87 604.346 1154.66 618.359 1154.66 633.574Z" fill="#2E2E2E"/>
<path d="M1502.2 250H1637.13V758.496L1623.12 865H1502.2V250ZM1902.99 643.584V651.992C1902.99 684.824 1899.66 714.72 1892.98 741.68C1886.31 768.639 1876.03 791.995 1862.15 811.748C1848.27 831.234 1830.79 846.315 1809.7 856.992C1788.62 867.669 1763.66 873.008 1734.83 873.008C1708.67 873.008 1686.25 867.402 1667.56 856.191C1648.88 844.714 1633.26 828.965 1620.72 808.945C1608.17 788.659 1598.03 765.303 1590.29 738.877C1582.55 712.184 1576.41 683.623 1571.87 653.193V643.184C1576.41 613.021 1582.55 584.727 1590.29 558.301C1598.03 531.608 1608.17 508.252 1620.72 488.232C1633.26 467.946 1648.75 452.197 1667.16 440.986C1685.85 429.508 1708.14 423.77 1734.03 423.77C1763.12 423.77 1788.22 429.242 1809.3 440.186C1830.66 451.13 1848.27 466.478 1862.15 486.23C1876.03 505.983 1886.31 529.206 1892.98 555.898C1899.66 582.591 1902.99 611.82 1902.99 643.584ZM1768.06 651.992V643.584C1768.06 627.835 1767.13 613.021 1765.26 599.141C1763.39 585.26 1760.05 572.982 1755.25 562.305C1750.45 551.628 1743.64 543.219 1734.83 537.08C1726.02 530.941 1714.54 527.871 1700.4 527.871C1685.98 527.871 1673.84 530.273 1663.96 535.078C1654.35 539.883 1646.61 546.823 1640.74 555.898C1635.13 564.707 1631.13 575.651 1628.73 588.73C1626.32 601.543 1625.26 616.09 1625.52 632.373V664.004C1624.99 686.159 1626.99 705.111 1631.53 720.859C1636.07 736.608 1643.94 748.62 1655.15 756.895C1666.36 765.169 1681.71 769.307 1701.2 769.307C1715.61 769.307 1727.22 766.504 1736.03 760.898C1745.11 755.293 1751.91 747.285 1756.45 736.875C1760.99 726.465 1764.06 714.053 1765.66 699.639C1767.26 685.225 1768.06 669.342 1768.06 651.992Z" fill="#2E2E2E"/>
<path d="M2105.59 431.777V865H1970.26V431.777H2105.59ZM1962.25 320.068C1962.25 300.85 1969.19 285.101 1983.07 272.822C1996.95 260.544 2014.97 254.404 2037.12 254.404C2059.28 254.404 2077.3 260.544 2091.18 272.822C2105.06 285.101 2112 300.85 2112 320.068C2112 339.287 2105.06 355.036 2091.18 367.314C2077.3 379.593 2059.28 385.732 2037.12 385.732C2014.97 385.732 1996.95 379.593 1983.07 367.314C1969.19 355.036 1962.25 339.287 1962.25 320.068Z" fill="#2E2E2E"/>
<path d="M2331.41 250V865H2196.08V250H2331.41Z" fill="#2E2E2E"/>
<defs>
<filter id="filter0_d_9_55" x="2424.36" y="169.053" width="863.755" height="766.812" filterUnits="userSpaceOnUse" color-interpolation-filters="sRGB">
<feFlood flood-opacity="0" result="BackgroundImageFix"/>
<feColorMatrix in="SourceAlpha" type="matrix" values="0 0 0 0 0 0 0 0 0 0 0 0 0 0 0 0 0 0 127 0" result="hardAlpha"/>
<feOffset dy="4"/>
<feGaussianBlur stdDeviation="2.5"/>
<feComposite in2="hardAlpha" operator="out"/>
<feColorMatrix type="matrix" values="0 0 0 0 0 0 0 0 0 0 0 0 0 0 0 0 0 0 0.25 0"/>
<feBlend mode="normal" in2="BackgroundImageFix" result="effect1_dropShadow_9_55"/>
<feBlend mode="normal" in="SourceGraphic" in2="effect1_dropShadow_9_55" result="shape"/>
</filter>
</defs>
</svg>
